<svg width="1024" height="1024" viewBox="0 0 1024 1024" fill="none" xmlns="http://www.w3.org/2000/svg">
<circle cx="512.5" cy="512.5" r="480.5" fill="url(#paint0_linear_4009_25)"/>
<path d="M439 795C446.348 803.817 456.916 811.139 469.643 816.23C482.369 821.32 496.805 824 511.5 824C526.195 824 540.631 821.32 553.357 816.23C566.084 811.139 576.652 803.817 584 795" stroke="white" stroke-width="75" stroke-linecap="round" stroke-linejoin="round"/>
<path d="M239.186 617.548C235.093 622.034 232.392 627.614 231.411 633.607C230.431 639.6 231.213 645.749 233.663 651.306C236.112 656.863 240.124 661.589 245.21 664.908C250.296 668.226 256.237 669.996 262.31 670H763.644C769.716 670.002 775.658 668.24 780.748 664.927C785.837 661.615 789.854 656.895 792.31 651.341C794.767 645.788 795.556 639.641 794.584 633.647C793.611 627.653 790.917 622.071 786.83 617.579C745.157 574.621 700.977 528.969 700.977 388C700.977 338.139 681.17 290.321 645.913 255.064C610.656 219.807 562.838 200 512.977 200C463.116 200 415.298 219.807 380.041 255.064C344.784 290.321 324.977 338.139 324.977 388C324.977 528.969 280.766 574.621 239.186 617.548Z" fill="white"/>
<defs>
<linearGradient id="paint0_linear_4009_25" x1="512.5" y1="32" x2="512.5" y2="993" gradientUnits="userSpaceOnUse">
<stop stop-color="#2583FE"/>
<stop offset="1" stop-color="#0153CD"/>
</linearGradient>
</defs>
</svg>
